# xmcd
# Copyright (C) 1995-1998 Ti Kan
#
# Track frame offsets:
#       150
#       22657
#       40052
#       62413
#       83224
#       104154
#       118982
#       133056
#       140515
#       159107
#       178261
#       203389
#       230124
#       255357
#
# Disc length: 4598 seconds
#
# Revision: 0
# Processed by: cddbd v1.5.2PL0 Copyright (c) Steve Scherf et al.
# Submitted via: CD-Import v1.0
#
DISCID=b811f40e
DTITLE=Navel - Neo Noir
DYEAR=11
DGENRE=
TTITLE0=Can't Feel A Thing
TTITLE1=Speedbox
TTITLE2=Black Days
TTITLE3=Acid Queen
TTITLE4=It's The Road That Makes The Song
TTITLE5=Free Land
TTITLE6=Invisible
TTITLE7=Kobra The Killer
TTITLE8=Rockin' In The Free World
TTITLE9=Hunger Child Blues
TTITLE10=Come Into My Mind
TTITLE11=Blues On My Side
TTITLE12=Rule To Follow
TTITLE13=Waiting Travelling Thinking
EXTD=
EXTT0=
EXTT1=
EXTT2=
EXTT3=
EXTT4=
EXTT5=
EXTT6=
EXTT7=
EXTT8=
EXTT9=
EXTT10=
EXTT11=
EXTT12=
EXTT13=
PLAYORDER=
